<?xml version="1.0" encoding="UTF-8"?>
<svg version="1.1" xmlns="http://www.w3.org/2000/svg" width="320" height="127">
<path d="M0 0 C105.6 0 211.2 0 320 0 C320 41.91 320 83.82 320 127 C214.4 127 108.8 127 0 127 C0 85.09 0 43.18 0 0 Z " fill="#FBFDFE" transform="translate(0,0)"/>
<path d="M0 0 C3.96 0 7.92 0 12 0 C12.33 9.9 12.66 19.8 13 30 C14.98 27.36 16.96 24.72 19 22 C21.6328125 19.94140625 21.6328125 19.94140625 24.125 18.5625 C24.95257813 18.08941406 25.78015625 17.61632812 26.6328125 17.12890625 C33.01759544 14.08401802 40.06766296 14.30081579 47 15 C50.6115381 16.28470136 53.78312167 17.92459463 57 20 C57 19.01 57 18.02 57 17 C60.96 17 64.92 17 69 17 C69 35.15 69 53.3 69 72 C64.71 72 60.42 72 56 72 C56 71.01 56 70.02 56 69 C55.24976563 69.3609375 54.49953125 69.721875 53.7265625 70.09375 C44.9121088 74.09022775 38.23465292 75.69455331 28.9375 72.5 C22.03943995 69.44872541 16.37612744 64.75225488 13 58 C12.67 62.62 12.34 67.24 12 72 C8.04 72 4.08 72 0 72 C-0.33 71.01 -0.66 70.02 -1 69 C-1.61488281 69.27714844 -2.22976562 69.55429688 -2.86328125 69.83984375 C-3.67152344 70.20207031 -4.47976562 70.56429687 -5.3125 70.9375 C-6.51326172 71.47697266 -6.51326172 71.47697266 -7.73828125 72.02734375 C-14.55561543 74.95915068 -20.54512589 74.72131856 -27.5625 72.4375 C-36.36560992 68.90394399 -41.17427506 63.73607519 -45.1875 55.234375 C-46 53 -46 53 -46 50 C-57.22 50.33 -68.44 50.66 -80 51 C-76.06370211 57.29707172 -76.06370211 57.29707172 -70 60 C-64.75693354 60.4544552 -60.17010963 60.03402193 -55 59 C-53.02 62.3 -51.04 65.6 -49 69 C-56.54009303 74.02672869 -64.27136064 73.98338609 -73 73 C-80.46049488 70.90022388 -85.72101052 66.37296305 -90 60 C-92.28890287 55.75715565 -93.83068572 51.67725713 -95 47 C-98.63 55.25 -102.26 63.5 -106 72 C-110.29 72 -114.58 72 -119 72 C-123.86295285 62.64596717 -127.97099107 52.99482603 -132.125 43.3125 C-132.84739123 41.6346515 -133.57004562 39.95691627 -134.29296875 38.27929688 C-137.66716295 30.44538034 -137.66716295 30.44538034 -139.14508057 26.9815979 C-139.71604529 25.65817203 -140.29828078 24.33955321 -140.89154053 23.02597046 C-142.17442182 20.15888605 -143 18.18121591 -143 15 C-138.38 15 -133.76 15 -129 15 C-126.88071714 20.0714534 -124.76283102 25.14348691 -122.64624023 30.21606445 C-121.92592161 31.94181093 -121.20522077 33.66739792 -120.48413086 35.39282227 C-119.4480511 37.87214046 -118.41334472 40.3520279 -117.37890625 42.83203125 C-117.05596085 43.60400345 -116.73301544 44.37597565 -116.40028381 45.17134094 C-115.18217788 48.09461133 -114.00185454 50.99443638 -113 54 C-108.85548559 45.1231129 -105.14760107 36.09729427 -101.50048828 27.00683594 C-100.77842106 25.20945998 -100.05332585 23.41330139 -99.328125 21.6171875 C-98.9043457 20.56128418 -98.48056641 19.50538086 -98.04394531 18.41748047 C-97 16 -97 16 -96 15 C-93.64686445 14.92728259 -91.29166332 14.91629132 -88.9375 14.9375 C-87.64714844 14.94652344 -86.35679688 14.95554687 -85.02734375 14.96484375 C-84.02832031 14.97644531 -83.02929688 14.98804688 -82 15 C-82.66 16.98 -83.32 18.96 -84 21 C-83.39671875 20.65066406 -82.7934375 20.30132812 -82.171875 19.94140625 C-80.97304687 19.25884766 -80.97304687 19.25884766 -79.75 18.5625 C-78.96109375 18.11003906 -78.1721875 17.65757813 -77.359375 17.19140625 C-70.69193402 13.82456933 -62.36794616 13.98590341 -55.20703125 15.6484375 C-49.06853593 17.8754265 -44.59907363 21.42661952 -40 26 C-39.77183594 25.40574219 -39.54367188 24.81148437 -39.30859375 24.19921875 C-37.64081768 21.39635927 -35.88031043 20.42208628 -33.0625 18.8125 C-32.18722656 18.30332031 -31.31195313 17.79414062 -30.41015625 17.26953125 C-23.67354206 13.72107159 -15.08544301 13.83780565 -7.85546875 15.89453125 C-5.53013621 16.8359749 -3.25734784 17.90552832 -1 19 C-0.67 12.73 -0.34 6.46 0 0 Z " fill="#3685C3" transform="translate(144,19)"/>
<path d="M0 0 C0.33 0.66 0.66 1.32 1 2 C1.9422644 2.16508057 1.9422644 2.16508057 2.90356445 2.33349609 C5 3 5 3 6.35620117 5.02197266 C6.74783447 5.8938623 7.13946777 6.76575195 7.54296875 7.6640625 C7.97673828 8.62183594 8.41050781 9.57960938 8.85742188 10.56640625 C9.51581055 12.08041016 9.51581055 12.08041016 10.1875 13.625 C10.63802734 14.61113281 11.08855469 15.59726562 11.55273438 16.61328125 C13.85392943 21.78148243 15.59582984 26.34161774 16 32 C15.43490723 32.08564209 14.86981445 32.17128418 14.28759766 32.25952148 C11.73285367 32.64869818 9.17893253 33.04303485 6.625 33.4375 C5.73554688 33.57220703 4.84609375 33.70691406 3.9296875 33.84570312 C3.07890625 33.97783203 2.228125 34.10996094 1.3515625 34.24609375 C0.56604004 34.36654053 -0.21948242 34.4869873 -1.02880859 34.61108398 C-3.06611684 34.92238238 -3.06611684 34.92238238 -5 36 C-3.14375 35.505 -3.14375 35.505 -1.25 35 C4.49772546 33.69828227 10.1373892 33.82144333 16 34 C16.33 34.99 16.66 35.98 17 37 C16.30962646 37.05534912 15.61925293 37.11069824 14.90795898 37.16772461 C11.75095586 37.42209536 8.59423062 37.6797704 5.4375 37.9375 C3.80844727 38.06801758 3.80844727 38.06801758 2.14648438 38.20117188 C-3.26859714 38.64557066 -8.6335783 39.14537617 -14 40 C-15.65645743 37.02387524 -16.39504675 34.41537772 -16.9375 31.0625 C-17.84583922 26.37629541 -18.58122616 22.63591177 -22.75 19.81640625 C-24.46589119 18.81662288 -26.23047332 17.90145699 -28 17 C-21.61960831 8.77265282 -11.24200538 -1.02200049 0 0 Z " fill="#ABD7EF" transform="translate(282,41)"/>
<path d="M0 0 C5.03235675 2.34150933 8.24947088 5.24112927 10.76953125 10.28125 C11.27682775 15.83656248 11.53213547 20.69955236 9.08203125 25.78125 C4.50481131 30.72959588 0.8981968 33.37803916 -5.91796875 33.65625 C-11.48645768 33.58308737 -15.12338226 32.01926651 -19.23046875 28.28125 C-22.91339007 24.08854578 -23.84186957 19.92504637 -23.54296875 14.4140625 C-22.65699459 8.36728886 -19.36598145 5.17937976 -14.8515625 1.48046875 C-10.46570891 -1.76400607 -5.09039545 -1.64033759 0 0 Z " fill="#F9FDFE" transform="translate(189.23046875,46.71875)"/>
<path d="M0 0 C4.73835006 2.68208494 8.55019571 6.58808714 10.3125 11.875 C10.82861449 17.34581357 10.01085253 21.08760035 7.3125 25.875 C2.83235341 30.58815658 -0.88068218 32.99430946 -7.5 33.1875 C-12.3536481 33.13098008 -14.96919946 32.15064572 -18.6875 28.875 C-22.53552547 24.70630574 -24.38277206 21.18222579 -25.125 15.5625 C-24.40894441 9.52717435 -21.45769967 5.51875684 -17.0625 1.4375 C-11.60586398 -2.15239212 -6.01073995 -1.83378507 0 0 Z " fill="#F9FDFE" transform="translate(133.6875,47.125)"/>
<path d="M0 0 C4.78298373 -0.74701698 8.53428156 -0.85977897 12.796875 1.640625 C14.6603381 3.06191041 16.50917543 4.50255378 18.34375 5.9609375 C27.71583265 13.15538918 39.46601703 14.80940231 51 14 C55.0266396 13.45750268 59.01279891 12.77934821 63 12 C62.34 14.64 61.68 17.28 61 20 C63.31 20.66 65.62 21.32 68 22 C60.10142076 28.75171293 46.77820463 27.6354808 37 27 C23.74857061 25.3010988 11.42898585 19.50844732 1.734375 10.2890625 C-0.15753108 7.79208736 -0.60311827 6.5337648 -0.625 3.4375 C-0.41875 2.303125 -0.2125 1.16875 0 0 Z " fill="#3785C3" transform="translate(211,100)"/>
<path d="M0 0 C2.2563827 2.52183949 3 3.81821581 3 7.1875 C1.53860548 9.83627757 -0.16762732 10.07649783 -3 11 C-5.59619141 11.25537109 -5.59619141 11.25537109 -8.3515625 11.2734375 C-9.87716797 11.304375 -9.87716797 11.304375 -11.43359375 11.3359375 C-13.53768177 11.36169133 -15.64187449 11.38009074 -17.74609375 11.390625 C-27.45166362 11.61037375 -35.67986471 14.02823567 -43.8125 19.4375 C-45.16214844 20.3346875 -45.16214844 20.3346875 -46.5390625 21.25 C-49.51026774 23.36285706 -52.27985248 25.57392248 -55 28 C-55 25.03 -55 22.06 -55 19 C-58.96 19.495 -58.96 19.495 -63 20 C-48.52442491 1.90553114 -22.61936086 -7.9167763 0 0 Z " fill="#3986C3" transform="translate(272,2)"/>
<path d="M0 0 C14.86150446 4.51928791 25.6477896 15.52048817 33.3046875 28.6953125 C37.04237302 35.98121561 40.83759288 44.64248621 39 53 C37 55.5625 37 55.5625 35 57 C27.56889677 53.54984493 27.56889677 53.54984493 26.1640625 49.72265625 C25.98617188 48.84480469 25.80828125 47.96695313 25.625 47.0625 C22.47111054 34.29515068 16.0858964 23.59187689 4.80102539 16.62988281 C3.06981512 15.60387613 1.31646402 14.61551101 -0.4375 13.62890625 C-1.7059375 12.82259766 -1.7059375 12.82259766 -3 12 C-3 11.34 -3 10.68 -3 10 C-1.02 9.34 0.96 8.68 3 8 C2.01 5.36 1.02 2.72 0 0 Z " fill="#3785C2" transform="translate(280,5)"/>
<path d="M0 0 C-0.3311452 18.39361072 -8.0440022 33.21503848 -21 46 C-29.96565347 54.13714424 -29.96565347 54.13714424 -36 54 C-38.875 53.0625 -38.875 53.0625 -41 52 C-39.75497173 45.09575229 -37.19705986 41.89611152 -31.75 37.625 C-19.75078501 28.14207049 -14.89674325 15.72511154 -12 1 C-9.03 2.98 -9.03 2.98 -6 5 C-5.195625 4.175 -4.39125 3.35 -3.5625 2.5 C-1 0 -1 0 0 0 Z " fill="#3785C2" transform="translate(320,65)"/>
<path d="M0 0 C3.79380532 2.37992025 3.79380532 2.37992025 4.70678711 5.12548828 C4.8125708 5.93228027 4.91835449 6.73907227 5.02734375 7.5703125 C6.58784064 19.52262491 6.58784064 19.52262491 13.79711914 28.54248047 C16.46116776 30.17605696 19.20383809 31.60727568 22 33 C23.3575635 33.9668501 24.70289492 34.953436 26 36 C25.67 37.32 25.34 38.64 25 40 C22.35278547 39.91186082 19.70845575 39.80485201 17.0625 39.6875 C15.95938477 39.65366211 15.95938477 39.65366211 14.83398438 39.61914062 C12.53423226 39.50867218 10.28381083 39.29168301 8 39 C7.18587646 38.896875 6.37175293 38.79375 5.53295898 38.6875 C2.91484885 38.12262741 1.17916958 37.56826675 -1 36 C-2.84946656 32.35059587 -3.43801468 28.64342726 -4.0625 24.625 C-4.26037109 23.5834375 -4.45824219 22.541875 -4.66210938 21.46875 C-5.4964374 16.9220983 -6.10408048 12.63079677 -6 8 C-5.34 7.67 -4.68 7.34 -4 7 C-2.86649466 4.98330173 -2.86649466 4.98330173 -2 3 C0.33578256 5.33578256 0.36020177 6.171879 0.7890625 9.359375 C0.99595703 10.66261719 0.99595703 10.66261719 1.20703125 11.9921875 C1.48285356 13.81209918 1.73851922 15.63519482 1.97265625 17.4609375 C2.80865614 22.47693682 3.73117436 25.34209746 7.8359375 28.515625 C10.75643333 30.39847956 13.6681697 31.95880303 17 33 C16.30132812 32.59007812 15.60265625 32.18015625 14.8828125 31.7578125 C13.97273438 31.21898438 13.06265625 30.68015625 12.125 30.125 C11.22007812 29.59132813 10.31515625 29.05765625 9.3828125 28.5078125 C6.52295771 26.69813389 5.21373897 25.78573793 4.31396484 22.47802734 C4.11496582 21.4411377 3.9159668 20.40424805 3.7109375 19.3359375 C3.49179688 18.21445312 3.27265625 17.09296875 3.046875 15.9375 C2.82515625 14.761875 2.6034375 13.58625 2.375 12.375 C2.14554688 11.19164062 1.91609375 10.00828125 1.6796875 8.7890625 C1.11289425 5.8606307 0.55331766 2.93100268 0 0 Z " fill="#B7D8EB" transform="translate(227,44)"/>
<path d="M0 0 C2.82733161 2.7441748 5.44444726 5.51031934 7.9375 8.5625 C11.18640491 12.39454168 14.65544332 15.23801908 19.5 16.8125 C23.74203547 18.82746685 26.9094186 22.81883719 29 27 C29.07065617 29.04055005 29.08421976 31.08334257 29.0625 33.125 C29.05347656 34.22070312 29.04445313 35.31640625 29.03515625 36.4453125 C29.02355469 37.28835937 29.01195312 38.13140625 29 39 C23.96385112 37.58093202 20.10984924 35.37101454 15.8125 32.5 C15.19697266 32.09652344 14.58144531 31.69304687 13.94726562 31.27734375 C5.64193645 25.82444074 5.64193645 25.82444074 4.39453125 20.625 C4.13349609 19.55765625 3.87246094 18.4903125 3.60351562 17.390625 C3.34248047 16.27171875 3.08144531 15.1528125 2.8125 14 C2.53986328 12.88109375 2.26722656 11.7621875 1.98632812 10.609375 C0 2.36536654 0 2.36536654 0 0 Z " fill="#ADD7EE" transform="translate(231,42)"/>
<path d="M0 0 C1.32 0 2.64 0 4 0 C5.66096978 3.51388384 7.3009794 7.03717119 8.9375 10.5625 C9.64036133 12.0484668 9.64036133 12.0484668 10.35742188 13.56445312 C12.76037493 18.76797017 14.62151397 23.25828633 15 29 C14.43490723 29.08564209 13.86981445 29.17128418 13.28759766 29.25952148 C10.73285367 29.64869818 8.17893253 30.04303485 5.625 30.4375 C4.73554688 30.57220703 3.84609375 30.70691406 2.9296875 30.84570312 C1.65351563 31.04389648 1.65351563 31.04389648 0.3515625 31.24609375 C-0.43395996 31.36654053 -1.21948242 31.4869873 -2.02880859 31.61108398 C-4.06611684 31.92238238 -4.06611684 31.92238238 -6 33 C-4.14375 32.505 -4.14375 32.505 -2.25 32 C3.49772546 30.69828227 9.1373892 30.82144333 15 31 C15.495 32.485 15.495 32.485 16 34 C15.30962646 34.05534912 14.61925293 34.11069824 13.90795898 34.16772461 C10.75095586 34.42209536 7.59423062 34.6797704 4.4375 34.9375 C2.80844727 35.06801758 2.80844727 35.06801758 1.14648438 35.20117188 C-4.26859714 35.64557066 -9.6335783 36.14537617 -15 37 C-15.66 35.35 -16.32 33.7 -17 32 C-9.61388659 25.54315899 -2.31638726 21.10546242 7 18 C5.47471506 12.86949613 3.28239585 8.13079573 1.0234375 3.29296875 C0 1 0 1 0 0 Z " fill="#E0F6FC" transform="translate(283,44)"/>
<path d="M0 0 C4.28946816 1.9958501 7.23871891 4.16867996 9.76953125 8.28125 C9.76953125 9.27125 9.76953125 10.26125 9.76953125 11.28125 C-0.79046875 11.28125 -11.35046875 11.28125 -22.23046875 11.28125 C-19.97546875 5.64375 -19.97546875 5.64375 -16.73046875 3.03125 C-15.8178125 2.28101563 -15.8178125 2.28101563 -14.88671875 1.515625 C-10.4914671 -1.76008142 -5.11726797 -1.64899704 0 0 Z " fill="#F6FCFE" transform="translate(85.23046875,46.71875)"/>
<path d="M0 0 C0.33 1.32 0.66 2.64 1 4 C0.43490723 4.08564209 -0.13018555 4.17128418 -0.71240234 4.25952148 C-3.26714633 4.64869818 -5.82106747 5.04303485 -8.375 5.4375 C-9.70917969 5.63956055 -9.70917969 5.63956055 -11.0703125 5.84570312 C-12.34648437 6.04389648 -12.34648437 6.04389648 -13.6484375 6.24609375 C-14.43395996 6.36654053 -15.21948242 6.4869873 -16.02880859 6.61108398 C-18.06611684 6.92238238 -18.06611684 6.92238238 -20 8 C-18.7625 7.67 -17.525 7.34 -16.25 7 C-10.50227454 5.69828227 -4.8626108 5.82144333 1 6 C1.33 6.99 1.66 7.98 2 9 C0.95658447 9.08302368 0.95658447 9.08302368 -0.10791016 9.16772461 C-3.28049178 9.42166855 -6.45274183 9.67954821 -9.625 9.9375 C-10.71941406 10.02451172 -11.81382812 10.11152344 -12.94140625 10.20117188 C-14.53662109 10.33168945 -14.53662109 10.33168945 -16.1640625 10.46484375 C-17.13811035 10.543396 -18.1121582 10.62194824 -19.11572266 10.70288086 C-22.10561134 11.01087938 -25.04095922 11.47612313 -28 12 C-28.33 11.01 -28.66 10.02 -29 9 C-19.87458538 4.00043774 -10.62028156 -0.34694205 0 0 Z " fill="#B5D7EB" transform="translate(297,69)"/>
<path d="M0 0 C3.96 0 7.92 0 12 0 C12 18.15 12 36.3 12 55 C7.71 55 3.42 55 -1 55 C-1.33 53.68 -1.66 52.36 -2 51 C-1.34 51 -0.68 51 0 51 C0 51.66 0 52.32 0 53 C3.3 53 6.6 53 10 53 C10 35.84 10 18.68 10 1 C7.03 1 4.06 1 1 1 C0.67 1.66 0.34 2.32 0 3 C0 2.01 0 1.02 0 0 Z " fill="#4F8AB8" transform="translate(201,36)"/>
<path d="M0 0 C0.99 0.495 0.99 0.495 2 1 C2.86335278 4.72485827 3.58756494 8.44392548 4.23632812 12.2109375 C5.28525153 17.55565923 6.45005804 20.6159019 11 24 C14.53755057 25.64906959 14.53755057 25.64906959 18.3125 26.8125 C18.95767578 27.02841797 19.60285156 27.24433594 20.26757812 27.46679688 C21.84068107 27.99116452 23.41977797 28.49749367 25 29 C25 29.33 25 29.66 25 30 C23.18831238 30.08276745 21.37545431 30.13996936 19.5625 30.1875 C18.04849609 30.23970703 18.04849609 30.23970703 16.50390625 30.29296875 C12.03299003 29.91914632 8.1819178 28.56315259 4 27 C3.32193683 23.8148163 2.65964849 20.62654387 2 17.4375 C1.71382812 16.09461914 1.71382812 16.09461914 1.421875 14.72460938 C0.39270093 9.70738579 -0.22479032 5.12100455 0 0 Z " fill="#4287BD" transform="translate(222,53)"/>
<path d="M0 0 C0.66 0 1.32 0 2 0 C3.67275302 3.62222211 5.33716251 7.2482166 7 10.875 C7.47695313 11.90753906 7.95390625 12.94007812 8.4453125 14.00390625 C8.89648438 14.99003906 9.34765625 15.97617187 9.8125 16.9921875 C10.44091797 18.35899658 10.44091797 18.35899658 11.08203125 19.75341797 C12 22 12 22 12 24 C10.76636719 24.14695312 10.76636719 24.14695312 9.5078125 24.296875 C2.82961769 25.1914138 -2.94880233 26.45582825 -9.07421875 29.29296875 C-9.70972656 29.52628906 -10.34523438 29.75960937 -11 30 C-11.66 29.67 -12.32 29.34 -13 29 C-6.68606318 24.32300976 -0.48052868 21.37699042 7 19 C5.48186161 13.89353451 3.29418528 9.19463476 1.0234375 4.390625 C0 2 0 2 0 0 Z " fill="#B8D8EA" transform="translate(285,44)"/>
<path d="M0 0 C4.58945391 3.05963594 4.40129845 7.09211964 5.4609375 12.3046875 C5.93568417 15.55911036 6.01715241 18.3603068 5.8125 21.625 C5.63465769 23.9445193 5.63465769 23.9445193 6 26 C8.80996083 28.71036916 8.80996083 28.71036916 12 30 C9 31 9 31 6.5 29.8125 C2.66112761 25.49376857 2.13401553 20.55667612 1 15 C0.61327267 13.41441795 0.21895058 11.83064114 -0.1875 10.25 C-0.455625 9.1775 -0.72375 8.105 -1 7 C-1.66 7.99 -2.32 8.98 -3 10 C-3 8.35 -3 6.7 -3 5 C-2.34 4.67 -1.68 4.34 -1 4 C-0.34786708 1.97536745 -0.34786708 1.97536745 0 0 Z " fill="#C3E6F4" transform="translate(224,47)"/>
<path d="M0 0 C0.33 0 0.66 0 1 0 C1.67218507 2.74875682 2.33792435 5.49880726 3 8.25 C3.19078125 9.02730469 3.3815625 9.80460937 3.578125 10.60546875 C3.75859375 11.35957031 3.9390625 12.11367188 4.125 12.890625 C4.29257813 13.58188477 4.46015625 14.27314453 4.6328125 14.98535156 C5 17 5 17 5 21 C5.52335938 21.2475 6.04671875 21.495 6.5859375 21.75 C9.68850095 23.35650535 12.6522953 25.16860157 15.625 27 C16.50285156 27.53367187 16.50285156 27.53367187 17.3984375 28.078125 C19.83633975 29.57665207 21.96892972 30.96892972 24 33 C23.34 34.32 22.68 35.64 22 37 C20.68 36.34 19.36 35.68 18 35 C18.33 34.01 18.66 33.02 19 32 C18.26394531 31.54109375 17.52789062 31.0821875 16.76953125 30.609375 C15.79371094 29.99578125 14.81789062 29.3821875 13.8125 28.75 C12.84957031 28.14671875 11.88664063 27.5434375 10.89453125 26.921875 C9.93933594 26.28765625 8.98414063 25.6534375 8 25 C7.10410156 24.47277344 6.20820313 23.94554688 5.28515625 23.40234375 C1.79623255 19.73450089 1.44299413 15.69640616 0.625 10.8125 C0.36009766 9.4212793 0.36009766 9.4212793 0.08984375 8.00195312 C-0.8051535 3.10810818 -0.8051535 3.10810818 -1 1 C-0.67 0.67 -0.34 0.34 0 0 Z " fill="#DBF4FD" transform="translate(232,47)"/>
<path d="M0 0 C0.33 0.99 0.66 1.98 1 3 C-8.24 3.66 -17.48 4.32 -27 5 C-19.0724685 -0.285021 -9.23324143 -0.44201688 0 0 Z " fill="#5A8EB7" transform="translate(298,75)"/>
<path d="M0 0 C2 1 2 1 2.57836914 2.71826172 C2.72910889 3.44803223 2.87984863 4.17780273 3.03515625 4.9296875 C3.20466797 5.72503906 3.37417969 6.52039062 3.54882812 7.33984375 C3.71833984 8.17644531 3.88785156 9.01304688 4.0625 9.875 C4.40627947 11.51849588 4.75128286 13.16173634 5.09765625 14.8046875 C5.24726807 15.53671387 5.39687988 16.26874023 5.55102539 17.02294922 C6.00986399 19.19340167 6.00986399 19.19340167 7 22 C6.01 22 5.02 22 4 22 C3.67 22.66 3.34 23.32 3 24 C2.49236135 21.31374546 1.99372803 18.62631617 1.5 15.9375 C1.35691406 15.18533203 1.21382812 14.43316406 1.06640625 13.65820312 C0.223569 9.02259825 -0.15015262 4.7110385 0 0 Z " fill="#5891BE" transform="translate(222,53)"/>
<path d="M0 0 C-0.35224909 7.85879863 -1.13498747 14.65062002 -4 22 C-4.97868964 18.93389538 -4.98040257 17.07167396 -4.0625 14 C-3.18728295 11.03237663 -3 9.23307152 -3 6 C-3.99 5.67 -4.98 5.34 -6 5 C-1.125 0 -1.125 0 0 0 Z " fill="#5591C0" transform="translate(320,65)"/>
<path d="M0 0 C0.33 0 0.66 0 1 0 C1 8.58 1 17.16 1 26 C1.99 26.33 2.98 26.66 4 27 C2.68 28.65 1.36 30.3 0 32 C0 21.44 0 10.88 0 0 Z " fill="#DAF3FD" transform="translate(156,19)"/>
<path d="M0 0 C0.66 0 1.32 0 2 0 C2 0.66 2 1.32 2 2 C0.37373596 3.38232443 -1.2925002 4.71937515 -3 6 C-1.68 6.33 -0.36 6.66 1 7 C1.66 9.64 2.32 12.28 3 15 C2.01 15.66 1.02 16.32 0 17 C0 14.03 0 11.06 0 8 C-2.64 8.33 -5.28 8.66 -8 9 C-7.04270084 7.87411986 -6.08412105 6.7493285 -5.125 5.625 C-4.59132812 4.99851562 -4.05765625 4.37203125 -3.5078125 3.7265625 C-2.38567993 2.44163349 -1.20628025 1.20628025 0 0 Z " fill="#4E88B6" transform="translate(217,13)"/>
<path d="M0 0 C4.86896303 0.59619955 9.32790951 1.56976822 14 3 C14 3.33 14 3.66 14 4 C12.08364783 4.05423638 10.16685075 4.09289963 8.25 4.125 C6.64898437 4.15980469 6.64898437 4.15980469 5.015625 4.1953125 C2.07529894 4.00487687 0.47638122 3.52670104 -2 2 C-1.34 2 -0.68 2 0 2 C0 1.34 0 0.68 0 0 Z " fill="#538CBA" transform="translate(233,79)"/>
<path d="M0 0 C5.75 1.75 5.75 1.75 8 4 C6.68 4 5.36 4 4 4 C4.33 4.99 4.66 5.98 5 7 C4.01 8.485 4.01 8.485 3 10 C2.01 10 1.02 10 0 10 C-0.33 10.99 -0.66 11.98 -1 13 C-1.66 12.67 -2.32 12.34 -3 12 C-3 11.34 -3 10.68 -3 10 C-1.02 9.34 0.96 8.68 3 8 C2.01 5.36 1.02 2.72 0 0 Z " fill="#4A87B7" transform="translate(280,5)"/>
<path d="M0 0 C0.99 0.66 1.98 1.32 3 2 C2.74438677 4.3431213 2.40729228 6.67843403 2 9 C1.01 9.495 1.01 9.495 0 10 C-0.33 9.01 -0.66 8.02 -1 7 C-1.66 7.99 -2.32 8.98 -3 10 C-3 8.35 -3 6.7 -3 5 C-2.34 4.67 -1.68 4.34 -1 4 C-0.34786708 1.97536745 -0.34786708 1.97536745 0 0 Z " fill="#C9E1EE" transform="translate(224,47)"/>
<path d="M0 0 C8.77578475 -0.76681614 8.77578475 -0.76681614 11.77734375 1.11328125 C13.125 2.5 13.125 2.5 15 5 C9.125 3.125 9.125 3.125 8 2 C5.67182036 1.63239269 3.3381615 1.29758419 1 1 C0.67 1.99 0.34 2.98 0 4 C0 2.68 0 1.36 0 0 Z " fill="#5C94C0" transform="translate(211,100)"/>
<path d="M0 0 C0.33 0 0.66 0 1 0 C1.10807131 1.93627769 1.1856225 3.87427756 1.25 5.8125 C1.29640625 6.89144531 1.3428125 7.97039062 1.390625 9.08203125 C1.26171875 10.04496094 1.1328125 11.00789063 1 12 C-0.32 12.99 -1.64 13.98 -3 15 C-2.01 10.05 -1.02 5.1 0 0 Z " fill="#DDF4FC" transform="translate(319,71)"/>
<path d="M0 0 C2.64 0 5.28 0 8 0 C8.33 0.99 8.66 1.98 9 3 C6.36 3 3.72 3 1 3 C0.67 2.01 0.34 1.02 0 0 Z " fill="#4381B2" transform="translate(290,75)"/>
<path d="M0 0 C-0.66 1.98 -1.32 3.96 -2 6 C-2.33 5.01 -2.66 4.02 -3 3 C-5.31 3 -7.62 3 -10 3 C-6.59538535 1.23899242 -3.90650339 0 0 0 Z " fill="#4786B8" transform="translate(274,112)"/>
<path d="M0 0 C5.75 1.75 5.75 1.75 8 4 C7.34 5.32 6.68 6.64 6 8 C4.68 7.34 3.36 6.68 2 6 C2.33 5.01 2.66 4.02 3 3 C2.01 2.01 1.02 1.02 0 0 Z " fill="#E7F7FB" transform="translate(248,76)"/>
<path d="M0 0 C0.99 0.495 0.99 0.495 2 1 C2.59355614 3.64860427 2.74209269 6.29197322 3 9 C2.01 9.495 2.01 9.495 1 10 C-0.1577506 6.52674819 -0.06866652 3.63932552 0 0 Z " fill="#5389B4" transform="translate(222,53)"/>
<path d="M0 0 C0.66 0.33 1.32 0.66 2 1 C0.88121617 2.17262904 -0.24523051 3.33795138 -1.375 4.5 C-2.00148438 5.1496875 -2.62796875 5.799375 -3.2734375 6.46875 C-5 8 -5 8 -7 8 C-5.50902342 4.2047869 -3.24299151 2.38957269 0 0 Z " fill="#E3F6FD" transform="translate(119,47)"/>
<path d="M0 0 C2.97 0 5.94 0 9 0 C9 0.99 9 1.98 9 3 C6.03 2.67 3.06 2.34 0 2 C0 1.34 0 0.68 0 0 Z " fill="#C9E6F6" transform="translate(208,21)"/>
</svg>
